<?xml version="1.0" encoding="utf-8"?>
<!-- Generator: Adobe Illustrator 21.0.0, SVG Export Plug-In . SVG Version: 6.00 Build 0)  -->
<svg version="1.1" id="Layer_1" xmlns="http://www.w3.org/2000/svg" xmlns:xlink="http://www.w3.org/1999/xlink" x="0px" y="0px"
	 viewBox="0 0 816.8 690.3" style="enable-background:new 0 0 816.8 690.3;" xml:space="preserve">
<style type="text/css">
	.st0{fill:url(#SVGID_1_);stroke:#191E4C;stroke-width:35;stroke-miterlimit:10;}
	.st1{fill:#FCD87F;stroke:#571E2A;stroke-linecap:round;stroke-miterlimit:10;}
	.st2{fill:none;stroke:#191E4C;stroke-width:25;stroke-miterlimit:10;}
	.st3{fill:#F9EFC7;stroke:#191E4C;stroke-width:25;stroke-miterlimit:10;}
</style>
<g>
	<linearGradient id="SVGID_1_" gradientUnits="userSpaceOnUse" x1="87.6579" y1="453.7239" x2="766.7593" y2="453.7239">
		<stop  offset="0.1134" style="stop-color:#73FE73"/>
		<stop  offset="0.4916" style="stop-color:#22D4EA"/>
		<stop  offset="0.8931" style="stop-color:#A77DF7"/>
	</linearGradient>
	<path class="st0" d="M756.1,245.3l-96.6-10.7v354.9c0,6.6-5.4,12.2-12,12.2H87.7c1.8,1,4.2,2.8,6.8,3.1l614.2,68
		c6.6,0.7,12.5-4.1,13.2-10.6l44.7-403.5C767.4,252,762.6,246,756.1,245.3z"/>
	<g>
		<defs>
			<path id="SVGID_2_" d="M647.5,601.5h-618c-6.6,0-12-5.4-12-12v-406c0-6.6,5.4-12,12-12h618c6.6,0,12,5.4,12,12v406
				C659.5,596.1,654.1,601.5,647.5,601.5z"/>
		</defs>
		<linearGradient id="SVGID_3_" gradientUnits="userSpaceOnUse" x1="11.5699" y1="190.0445" x2="665.4301" y2="582.9233">
			<stop  offset="0.1134" style="stop-color:#73FE73"/>
			<stop  offset="0.4916" style="stop-color:#22D4EA"/>
			<stop  offset="0.8931" style="stop-color:#A77DF7"/>
		</linearGradient>
		<use xlink:href="#SVGID_2_"  style="overflow:visible;fill:url(#SVGID_3_);"/>
		<clipPath id="SVGID_4_">
			<use xlink:href="#SVGID_2_"  style="overflow:visible;"/>
		</clipPath>
		<use xlink:href="#SVGID_2_"  style="overflow:visible;fill:none;stroke:#191E4C;stroke-width:35;stroke-miterlimit:10;"/>
	</g>
	<path class="st1" d="M764.1,58.9"/>
	<polyline class="st2" points="100.1,243.4 155.3,292 99.9,340.9 	"/>
	<line class="st2" x1="164" y1="356.7" x2="265" y2="356.7"/>
	<g>
		<path class="st3" d="M550,266.4c-21.1-21.1-55.3-21.1-76.4,0c-20.7,20.7-20.8,43.5-27.4,57.2c-1.2,2.5-2.6,4.7-4.5,6.5
			c-14,14-23.2,8.4-23.2,16c0,7.6,29.7,26,60.8,26c17.7,0.1,35-4.6,50.1-13.3c7.5-4.4,14.4-9.7,20.6-16
			C571.1,321.8,571.1,287.5,550,266.4z"/>
		<path class="st3" d="M786.9,12.5c-14.5,0-170.5,127.1-204.1,160.6c-21.7,21.7-39.1,51.3-39.1,67.3c0,6.5,25.5,32.6,32.6,32.6
			c16,0,45.6-17.3,67.3-39.1c33.5-33.5,160.6-189.6,160.6-204.1C802.5,21.1,795.7,14.3,786.9,12.5z"/>
	</g>
</g>
</svg>
